<?xml version="1.0" encoding="UTF-8" standalone="no"?>
<svg xmlns:rdf="http://www.w3.org/1999/02/22-rdf-syntax-ns#" xmlns="http://www.w3.org/2000/svg" height="109.55" width="150" version="1.1" xmlns:cc="http://creativecommons.org/ns#" xmlns:dc="http://purl.org/dc/elements/1.1/" viewBox="0 0 150.00076 109.55363">
 <g transform="matrix(2.2213 0 0 2.2213 .99484 1.0085)">
  <path d="m0.676 1.635c-0.02575-0.5454-0.00936-1.0916-0.03122-1.6371 0.40262 0.75455 0.68822 1.6043 1.3179 2.2106 0.2185 0.1795 0.4511 0.3605 0.7273 0.4393 0.6539 0.16074 1.3078-0.07881 1.9586-0.12016 0.33631 0.04605 0.70305 0.16698 0.90905 0.45492 0.21692 0.29106 0.39171 0.6094 0.5657 0.927 0.77485 1.1618 1.4116 2.4369 2.4119 3.4302 0.2653 0.27311 0.59145 0.47364 0.88565 0.7124 0.07491 0.1506 0.24814 0.19976 0.38703 0.2731 1.0714 0.48613 2.2621 0.6625 3.4326 0.6461 1.7658 0.00625 3.5316-0.02885 5.2985 0.0045 1.2469 0.00625 2.4938-0.01795 3.7408 0.0025 0.30822 0.03825 0.55715-0.17245 0.8271-0.28091 0.78965-0.39094 1.6542-0.60785 2.5243-0.7171 5.36-0.003 10.72-0.004 16.079 0 1.0456 0.103 2.0538 0.45648 2.98 0.94415 0.5275 0.13655 1.0846-0.01715 1.6238 0.0476 0.991 0.0015 1.9828 0.01485 2.973-0.0164 0.93325 0.0273 1.868 0.032 2.8005 0.0015 0.57275 0.0312 1.1462 0.0234 1.719-0.001 1.1603 0.061645 2.3784-0.0273 3.4271-0.5712 1.3008-0.5977 2.2044-1.7666 2.9534-2.9441 0.50175-0.82245 0.9855-1.6574 1.5184-2.4595 0.15918-0.26998 0.47988-0.35816 0.7616-0.43619 0.32929-0.06086 0.65465 0.057745 0.97615 0.11783 0.56105 0.092855 1.1798 0.069445 1.6511-0.28872 0.48145-0.39327 0.8248-0.92935 1.0862-1.488 0.15528-0.27622 0.24268-0.5907 0.44946-0.8357-0.1108 1.2516 0.02185 2.5126-0.10222 3.7642-0.11002 0.7639-0.36284 1.5044-0.74365 2.1755-0.48769 0.61255-1.3444 0.51345-2.0397 0.508-0.42136 1.9734-0.7202 4.0116-1.6386 5.8335-0.13968 0.30276-0.36362 0.5556-0.4994 0.8599-0.75375 1.1018-1.772 2.0171-2.9433 2.6577-0.9902 0.5142-2.0888 0.90595-3.2196 0.86145-1.0956-0.0025-2.1903 0.0025-3.2851-0.0025 0.5829 0.5423 1.2742 0.94885 1.8891 1.4514 1.0558 0.71555 2.1264 1.4295 3.3062 1.925 0.18649 0.08193 0.38703 0.12172 0.5829 0.17556-0.42448 0.17635-0.8513 0.34724-1.2602 0.5587-1.6582 0.6188-3.2757 1.4022-5.036 1.6909-0.97695 0.20834-1.9828 0.28481-2.9776 0.17947-0.59925-0.03275-1.1782-0.20132-1.769-0.28793-0.10924 0.21224-0.1943 0.43541-0.28793 0.6539-0.10534 0.24111-0.33241 0.44946-0.30276 0.7327 0.00078 0.5462-0.01951 1.0924-0.03589 1.6378-0.02029 0.40342-0.05306 0.82165-0.24814 1.1837-0.29106 0.8279-0.8154 1.5458-1.3515 2.2309-0.27076 0.35738-0.6102 0.6531-0.92465 0.96915-0.21068 1.4428-0.35114 2.905-0.5782 4.3494-0.02341 0.15294-0.03121 0.30744-0.04135 0.46194 0.51735 0.82555 0.8365 1.7822 0.8958 2.7552-0.2731 0.8443-0.6578 1.6504-0.927 2.497-0.10066 0.33319-0.17088 0.68745-0.38391 0.97225-0.15216 0.2614-0.41434 0.42448-0.67185 0.5673 0.43853 0.51265 0.5142 1.2313 0.3683 1.8688-0.14904 0.59225-0.58135 1.1525-1.197 1.2976-0.37376 0.12797-0.7655 0.03275-1.1408-0.0328-0.16308 0.40654-0.1662 0.8708-0.41122 1.2438-0.28169 0.48222-0.8271 0.79435-1.3772 0.84505-1.5372 0.0055-3.0752 0.001-4.6132 0.0025-0.11314-0.02885-0.1904 0.06165-0.26686 0.12328-0.9114 0.8084-2.0312 1.4084-3.2422 1.6004-0.79125 0.15294-1.5996-0.02185-2.3495-0.27779-1.0347-0.40108-1.978-1.0074-2.8333-1.7088-1.0152-0.92545-1.7939-2.0686-2.5586-3.2-0.7413-1.2228-1.3585-2.5165-1.9866-3.7993-0.59225-1.1946-1.261-2.351-1.9929-3.4654-1.197-1.7666-2.2855-3.6081-3.5714-5.314-1.3226-1.7806-2.8957-3.3865-4.6936-4.6896-1.9624-1.4428-4.3244-2.3971-6.773-2.4978-1.133-0.10144-2.2707 0.001-3.3967 0.13578 0.78185-0.9192 1.5599-1.8438 2.394-2.7162 0.39562-0.45804 0.87785-0.82945 1.2875-1.275 1.1611-1.044 2.3862-2.0264 3.7252-2.8356 0.46974-0.31836 0.99255-0.54855 1.4638-0.8646-1.1482-0.586-2.2102-1.385-2.996-2.419-0.7303-0.887-1.1306-1.984-1.4747-3.065-0.3675-1.2731-0.6094-2.5738-0.8731-3.8699-0.3254 0.0015-0.6508 0.0149-0.9754-0.0015-0.4807-0.0686-0.9598-0.3331-1.1947-0.7709-0.7007-1.2368-0.72725-2.7085-0.6781-4.0912"/>
  <path d="m1.3867 2.6895c0.02887 0.4565 0.11108 0.90874 0.23047 1.3496 0.12016 0.48145 0.26834 0.97822 0.57422 1.377 0.56415 0.49627 1.366 0.06986 2.002 0.33984 0.37845 1.1884 0.55667 2.4273 0.90234 3.625 0.31135 1.1759 0.70788 2.3528 1.3945 3.3672 0.7967 1.0861 1.8902 1.9604 3.1309 2.4863 0.65545 0.25672 1.3356 0.49714 2.0488 0.49414 1.4318 0.0085 2.865-0.0024 4.2969 0.0039 0.24578 0.02653 0.43111-0.15872 0.63476-0.26172 0.62505-0.3371 1.2711-0.63582 1.9453-0.86133 0.24109-0.08115 0.50222-0.11306 0.7207-0.25195-0.29495-0.0312-0.59176-0.01858-0.88672-0.01758-2.1864 0-4.3742-0.0025-6.5605 0-0.23953 0.0031-0.4862-0.02239-0.70312-0.13086-1.2072-0.635-2.2192-1.571-3.1571-2.548-0.2137-0.265-0.4599-0.512-0.5996-0.828-0.7397-0.9348-1.4578-1.9334-1.791-3.0937-0.2395-0.7187-0.4815-1.4376-0.7109-2.1602-0.0804-0.2403-0.1195-0.5376-0.3614-0.6758-0.2746-0.2216-0.6245-0.0523-0.9335-0.0312-0.4955 0.0546-1.0899-0.006-1.4278-0.4141-0.3059-0.5259-0.4647-1.1202-0.6738-1.6875-0.0195-0.0195-0.0575-0.0597-0.0762-0.08zm64.635 0.097656c-0.14513 0.32305-0.23261 0.66836-0.38476 0.98828-0.1459 0.309-0.23007 0.68577-0.54297 0.87305-0.5002 0.3246-1.1323 0.25691-1.6895 0.15625-0.33942-0.0882-0.66766 0.19492-0.74024 0.51562-0.22005 0.7842-0.49443 1.5521-0.73633 2.3301-0.34565 1.1962-1.0693 2.2414-1.8574 3.1895-0.27705 0.6024-0.79743 1.033-1.25 1.498-0.5743 0.52595-1.1481 1.0618-1.8145 1.4707-0.36205 0.22236-0.7271 0.50509-1.168 0.52539-2.5645 0.0242-5.1301-0.02376-7.6934 0.02539 0.3293 0.13889 0.68048 0.21109 1.0137 0.33984 0.7015 0.2528 1.3789 0.57468 2.0195 0.95703 0.12875 0.09206 0.29276 0.07563 0.44336 0.07813 1.4061-0.0111 2.8127 0.007 4.2188-0.0078 0.66485 0.00078 1.2953-0.23231 1.9102-0.46094 1.7978-0.73895 3.3434-2.1925 4.0059-4.041 0.4635-1.1299 0.75304-2.3222 1.0059-3.5137 0.18961-0.67105 0.22386-1.4085 0.57422-2.0195 0.52435-0.1022 1.0897 0.074014 1.6094-0.09375 0.40421-0.13965 0.57438-0.56608 0.70313-0.9375 0.20288-0.6024 0.41363-1.2278 0.37305-1.873zm-34.852 6.5625c0.01873 0.11314 0.03791 0.22592 0.05664 0.33984-1.655-0.004-3.3106 0.0035-4.9648-0.00195-0.41665-0.00546-0.82784 0.076294-1.2305 0.17383-0.65935 0.19745-1.3945 0.46528-1.6973 1.1426-0.35112 1.0284-0.16596 2.161 0.20312 3.1582 0.46035 0.0443 0.92985-0.03975 1.3848 0.03906 0.08974 0.03278 0.1755 0.07584 0.25977 0.12109-0.03824-0.02888-0.11293-0.08639-0.15039-0.11524 1.4186-0.02825 2.8392-0.03826 4.2578-0.0039 0.39875 2.3372 1.2037 4.5773 2.0176 6.7949 0.4565 1.197 0.93889 2.3827 1.4375 3.5625 0.11158 0.2817 0.2097 0.59632 0.47266 0.77734 0.4151 0.34333 1.0224 0.36061 1.4805 0.09375 0.52515-1.9523 1.1401-3.8813 1.6426-5.8398 0.4705-1.7993 0.97002-3.5925 1.375-5.4082 0.3371-0.0024 0.6758 0.000459 1.0137 0.0059 1.4318 0.0078 2.8646-0.03821 4.2949 0.02734 0.40105-0.05695 0.80635-0.02537 1.209-0.0098-0.11158-0.01715-0.22318-0.03283-0.33398-0.04687 0.40888-0.9871 0.52621-2.1189 0.23437-3.1543-0.36-0.747-1.214-1.0279-1.965-1.2003-0.66-0.1693-1.342-0.1051-2.016-0.1152-1.2219 0.0015-2.4448-0.00389-3.666 0.00391h-0.02344c-0.3394 1.6035-0.65161 3.2137-1.0137 4.8125-0.22472-1.5871-0.45846-3.1738-0.67383-4.7617-0.5743 0.34881-1.3093 0.2782-1.9023 0.013672-0.03278 0.59695-0.14772 1.1859-0.20312 1.7812-0.05306 0.50565-0.08174 1.0131-0.16211 1.5156-0.07412 0.4635-0.07355 0.93689-0.17187 1.3965-0.382-1.702-0.762-3.406-1.166-5.1014zm-9.2754 5.9297c-0.9145-0.02107-1.832 0.04786-2.7324 0.21094-0.43855 0.07881-0.85599 0.23645-1.2891 0.33789-0.64685 0.37845-1.2741 0.81825-1.7852 1.373-1.0822 0.02635-2.1654-0.01556-3.2461 0.02344-0.67105 0.27775-1.3687 0.49022-2.0273 0.79688-0.85055 0.3839-1.7022 0.76892-2.5176 1.2246-1.4226 0.729-2.8103 1.528-4.1329 2.428-0.4284 0.272-0.7968 0.726-1.3516 0.701 0.0023-0.064 0.0051-0.129 0.0098-0.193-0.039-0.012-0.1173-0.037-0.1563-0.049-0.0234 0.13-0.0449 0.261-0.0683 0.392 0.252-0.2341 0.63398-0.17428 0.95312-0.20312 0.57505 0.0032 1.1503-0.01556 1.7246 0.02734 0.22162 0.02028 0.39242-0.14972 0.57812-0.24414 1.843-1.14 3.8247-2.0257 5.7754-2.9629 1.3421-0.61255 2.6768-1.3101 4.1484-1.5527-0.6906 0.92-1.7204 1.492-2.748 1.9609-0.4167 0.18181-0.85248 0.31422-1.2871 0.44531 1.4443 0.34175 3.0387 0.2081 4.3457-0.52539 0.30275-0.14746 0.61085-0.29365 0.85742-0.5293 0.5829-0.348 1.2539-0.50259 1.8945-0.71094 0.58835-0.19507 1.2038-0.27869 1.8047-0.42383-0.7249-0.15294-1.4532-0.29273-2.1836-0.41992 1.2735-0.47755 2.6266-0.73763 3.9805-0.84375 0.21145 0.5665 0.51384 1.1153 0.97656 1.5156 0.43385 0.3855 0.89677 0.76235 1.4492 0.96289 0.42605 0.16542 0.8861 0.20393 1.3379 0.23828 0.2653-0.02425 0.53196-0.0278 0.79883-0.0293 0.17323 0.36985 0.30614 0.75862 0.53711 1.0996 0.7873 1.6105 1.5557 3.2297 2.3477 4.8379 0.26295 0.50875 0.73262 0.86559 1.2109 1.1582-0.2606 0.0024-0.52141 0.0121-0.78125-0.002 0.3878 0.06632 0.78173 0.02423 1.1719 0.01563 0.54855-0.0054 1.0987 0.0066 1.6465-0.0059-0.7007-0.6703-1.4391-1.3024-2.1328-1.9805-0.15996-0.17165-0.21614-0.40806-0.31836-0.61328-0.31605-0.6773-0.56254-1.3879-0.91992-2.0449-0.19585-0.28405-0.2322-0.63553-0.37109-0.94531 0.11704-0.31445 0.43549-0.5735 0.39648-0.95117-0.9808-1.7494-2.4871-3.2972-4.4277-3.9355-1.1057-0.42215-2.296-0.5278-3.4688-0.58398zm24.77 0.0039c-0.7963-0.01746-1.5935 0.03141-2.3809 0.16211-1.5879 0.22865-3.1354 0.901-4.291 2.0293-0.72025 0.6586-1.2772 1.4682-1.8008 2.2852 0.03824 0.37455 0.21358 0.70659 0.46094 0.98438-0.5244 1.129-1.0178 2.2717-1.5117 3.4141-0.08115 0.18649-0.25056 0.30915-0.39258 0.44727-0.41045 0.36985-0.80949 0.75278-1.2246 1.1172-0.21537 0.1974-0.45177 0.37724-0.625 0.61524 0.6063 0.0094 1.214-0.0019 1.8203 0.0059 0.22084-0.0047 0.4604 0.02954 0.66016-0.08984 0.6976-0.3332 1.1394-1.0188 1.4102-1.7188 0.44635-0.9106 0.84352-1.8453 1.2969-2.752 0.2825-0.5782 0.50042-1.1878 0.83984-1.7363 0.15137-0.25515 0.21112-0.55227 0.36328-0.80664 0.6484 0.01561 1.3011-0.14533 1.8613-0.47461 0.82944-0.51655 1.5703-1.2558 1.8535-2.2148 1.3538 0.078 2.6895 0.39858 3.9707 0.83398-0.7296 0.14279-1.4626 0.27129-2.1875 0.43359 1.0261 0.16465 2.0379 0.42895 3.0117 0.79102 0.81855 0.2973 1.5064 0.85627 2.3047 1.1973 1.147 0.41824 2.4093 0.45987 3.6016 0.22656-0.47285-0.23332-1.001-0.32802-1.4707-0.56836-0.69525-0.3394-1.3843-0.7186-1.9531-1.25-0.5704-0.49705-0.99525-1.1381-1.5898-1.6094-0.5072-0.42135-1.0847-0.75002-1.6504-1.084-0.78422-0.13655-1.5807-0.22082-2.377-0.23828zm-36.471 5.7441c-0.7569-0.0242-1.4112 0.42201-1.9902 0.85742-0.37455 0.2887-0.79652 0.51523-1.1484 0.83203 1.1923 0.29805 2.3321 0.80942 3.3613 1.4805 1.3827 0.7881 2.533 1.9001 3.6816 2.9863 0.6422-0.6203 1.3587-1.1604 2.1094-1.6426 0.51735-0.29885 1.0373-0.59137 1.5586-0.88086-1.1143-0.16695-2.1833-0.5576-3.2031-1.0273-0.25361-0.09285-0.40106-0.33259-0.625-0.4707-0.87395-0.5712-1.5156-1.4533-2.4629-1.9199-0.40345-0.16776-0.84974-0.19219-1.2812-0.21484zm16.496 2.1992c-0.17011 0.17168-0.20827 0.42215-0.25976 0.64844-0.1108 0.4752 0.09564 0.95516 0.36328 1.3398 0.25205 0.34411 0.69074 0.49797 1.1074 0.43555-0.05852-0.09129-0.07785-0.22312-0.17774-0.2793-0.21924-0.05852-0.47795-0.01935-0.6543-0.18945-0.33007-0.2731-0.31246-0.83585 0.04102-1.084-0.12407-0.2981-0.28025-0.58082-0.41992-0.87109zm13.849 0.024c-0.15918 0.25595-0.26738 0.53938-0.42187 0.79688 0.17401 0.2372 0.3733 0.51561 0.25781 0.82617-0.1108 0.39484-0.55474 0.51858-0.91992 0.51758-0.03979 0.10144-0.07895 0.20247-0.11719 0.30469 0.23879-0.01404 0.4862-0.03256 0.70312-0.14258 0.71006-0.3933 0.95237-1.3501 0.6543-2.0781-0.0476-0.07257-0.04389-0.22311-0.15625-0.22461zm3.8516 1.6875c-0.22942 0.28405-0.40497 0.60425-0.63672 0.88672-0.61175 0.72725-1.3393 1.379-2.207 1.7832-0.27775 0.13811-0.55035 0.29038-0.83594 0.41211-0.4838 0.2185-0.73742 0.71186-0.98633 1.1504 0.23409 0.579 0.09925 1.2311-0.19336 1.7617 0.95114 0.01795 1.8029 0.51618 2.6074 0.97656 0.14826-0.57195 0.29239-1.1468 0.45703-1.7148 0.08272-0.2809 0.01638-0.67129 0.31836-0.83203 0.3168-0.2177 0.61589-0.47812 0.83203-0.79883 0.14982-0.27465 0.27711-0.56168 0.4082-0.8457-0.27778 0.09286-0.50931 0.27749-0.77539 0.39453-0.54775 0.24655-1.1031 0.48299-1.6875 0.62891 0.4175-0.3035 0.89929-0.52036 1.2754-0.87695 0.3472-0.4596 0.84919-0.78537 1.1465-1.2832 0.30432-0.48765 0.29841-1.0886 0.27734-1.6426zm-20.771 0.002c-0.03277 0.3574 0.0047 0.71723 0.05078 1.0723 0.11785 0.60865 0.62352 1.0216 1.0176 1.4609 0.47205 0.5197 1.0714 0.89071 1.6465 1.2832-0.17398-0.06164-0.35021-0.1192-0.52734-0.16992-0.69135-0.19745-1.3133-0.56602-1.9492-0.89063 0.25985 0.72335 0.74926 1.3743 1.4102 1.7754 0.17946 0.8146 0.4252 1.6139 0.58984 2.4316 0.34565-0.13188 0.6262-0.38805 0.97266-0.52148 0.53685-0.21302 1.0843-0.46832 1.6758-0.45117-0.313-0.492-0.429-1.118-0.253-1.678 0.004-0.326-0.274-0.575-0.451-0.826-0.286-0.411-0.805-0.51-1.215-0.746-0.928-0.443-1.742-1.113-2.377-1.92-0.213-0.262-0.372-0.565-0.592-0.82zm12.63 2.445c-0.10768 0.80915-0.21538 1.6182-0.33789 2.4258-0.1662 1.0955-0.26821 2.2037-0.46484 3.293-0.13812-0.7327-0.20014-1.4782-0.31641-2.2148-0.103-0.90515-0.27471-1.8026-0.35352-2.7109-0.16152 0.09597-0.31505 0.20751-0.48828 0.2793-0.46425 0.1584-1.0168 0.07691-1.3711-0.27734-0.18806 1.6565-0.29518 3.3235-0.50586 4.9785-0.3184-1.922-0.64415-3.8433-0.96875-5.7637-0.52355 0.1514-1.1975 0.55197-1.0508 1.1973 0.1069 0.94574 0.26566 1.8895 0.28516 2.8438 0.06399 0.86844 0.07147 1.7386 0.07617 2.6094 0.79825 0.48379 1.739 0.62829 2.6465 0.76562 1.1556 0.07957 2.3174 0.13502 3.4746 0.02734 1.1057-0.09676 2.2111-0.21155 3.3066-0.39648 0.03745-0.007 0.11099-0.02034 0.14844-0.02734-1.0425 0.8607-2.1926 1.6406-3.5215 1.9707-0.86615 0.22864-1.7675 0.28553-2.6602 0.27148-1.0354 0.007-2.086-0.08557-3.0684-0.42969-1.1993-0.3839-2.2472-1.119-3.1836-1.9453-0.08037 0.06321-0.16025 0.12586-0.23828 0.19141-0.44245 0.44555-0.89724 0.89873-1.1992 1.4551-0.46584 0.82245-0.53431 1.798-0.48438 2.7227 0.02887 0.6874 0.21935 1.3524 0.38867 2.0156 0.30275 0.14826 0.66324 0.14047 0.94727 0.33398 0.32615 0.21065 0.65652 0.43672 0.88281 0.75977-0.02029 0.22551-0.21612 0.40338-0.29883 0.61328-0.32775 0.5876 0.06961 1.5074 0.78516 1.5215 0.6383 0.01248 1.2742-0.06567 1.9102-0.10547 2.0883-0.2138 4.1834-0.39178 6.2832-0.36133 1.2539 0.0632 2.5051 0.19669 3.748 0.36914 0.44165 0.08035 0.88176-0.22592 0.97852-0.6582 0.05618-0.38705 0.05355-0.83435-0.23438-1.1348-0.284-0.35737-0.75718-0.48708-1.1973-0.45508 0.27775-0.28482 0.59495-0.52798 0.9375-0.72852 0.23565-0.13811 0.5565-0.05805 0.76172-0.25781 0.18415-0.15917 0.23173-0.41082 0.30664-0.63086 0.2489-0.84115 0.58086-1.6522 0.90234-2.4668 0.12406-0.2575 0.0058-0.54212-0.04492-0.80274-0.12955-0.5462-0.55702-0.93999-0.86914-1.3848-0.50795-0.70775-1.2928-1.1673-1.7578-1.9102-0.4471-0.67345-0.67774-1.4533-1-2.1875-0.08427 0.10534-0.14809 0.22672-0.18945 0.35547-0.25594 0.73665-0.36332 1.5166-0.39453 2.293-0.295-0.589-0.494-1.222-0.731-1.836-0.439-1.219-0.597-2.517-0.721-3.799-0.192-0.445-0.66-0.708-1.119-0.808zm-13.775 0.46094c0.06632 0.10768 0.13251 0.21263 0.20117 0.32031-0.25046 0.3246-0.5639 0.60241-0.74805 0.97461-0.2856 0.54-0.65301 1.0359-0.88086 1.6055-0.55945 1.1556-0.82924 2.4535-0.7793 3.7363 0.0117 0.515 0.13677 1.0174 0.18359 1.5293l0.0039 0.04297c0.8131 1.2953 1.4462 2.6903 2.1367 4.0527 0.36125 0.6984 0.84826 1.3195 1.3398 1.9297 0.23565 0.29337 0.52694 0.53776 0.83594 0.75 0.2271 0.15216 0.53274 0.24166 0.79492 0.13477 0.33397-0.2575 0.3649-0.71531 0.41016-1.1016-0.0031-0.15996 0.05373-0.36381-0.08984-0.47852-0.32772-0.28555-0.61775-0.63566-0.75976-1.0508-0.2786-0.99644-0.67978-1.9524-1.0723-2.9082 0.06086-0.6188 0.19788-1.2253 0.37891-1.8184-0.064-1.638-0.178-3.274-0.235-4.913-0.025-0.291-0.012-0.59-0.091-0.873-0.625-0.57-1.156-1.234-1.629-1.933zm3.3828 15.871c-0.10456 0.0055-0.21067 0.01329-0.31445 0.02344 0.08193 0.08035 0.2013 0.06994 0.30664 0.08789 0.0023-0.02732 0.0063-0.08323 0.0078-0.11133zm9.3789 0.77734c-0.2731-0.02653-0.49598 0.14858-0.72461 0.26562-0.66635 0.37455-1.3664 0.68914-2.0234 1.0801 0.43465 0.0008 0.87435 0.03353 1.3066-0.01953 0.52905-0.18645 1.0057-0.49364 1.5137-0.72852 0.07178 0.29885-0.14318 0.54167-0.32031 0.75391 1.3046-0.003 2.6094-0.005 3.9141 0.002 0.06711-0.23176 0.16079-0.49091 0.04297-0.72266-0.1795-0.32851-0.50204-0.61514-0.89453-0.61914-0.9379-0.02575-1.8773 0.000782-2.8145-0.01172z" transform="translate(0 -.00025940)" fill="#480059"/>
  <path d="m66.049 2.7266c-0.2817 0.26141-0.55123 0.55837-0.92188 0.69336-0.6539 0.25045-1.3688 0.14749-2.0352 0.00781-0.21378-0.055405-0.49546-0.052861-0.61719 0.16406-0.20056 0.38785-0.42959 0.75826-0.66602 1.125-0.609 1.0682-1.281 2.1233-2.184 2.9707-0.56805 0.61255-1.2087 1.1727-1.9609 1.5488-0.6297 0.30509-1.3145 0.48061-2.002 0.59375-1.3671 0.16386-2.7446 0.073053-4.1172 0.095703-2.2119 1e-7 -4.4226-0.0005468-6.6348 0.00195-0.28168 0.02653-0.48974-0.1931-0.72852-0.30078-0.86145-0.3886-1.7504-0.76575-2.6992-0.86328-1.6136 0.00155-3.2289-0.012487-4.8418 0.00781-0.0554 0.30585-0.11997 0.6121-0.1543 0.92188 1.2212-0.0075 2.4441-0.00241 3.666-0.00391 0.6734 0.010145 1.3555-0.05409 2.0156 0.11523 0.75145 0.17245 1.6051 0.45288 1.9648 1.2012 2.2372 0.007 4.4738 0.000454 6.7109 0.002 1.3585 0.01875 2.7181-0.03703 4.0742 0.0332-3.265 0.341-6.5219 0.76216-9.7852 1.1211 0.22003 0.3706 0.47869 0.71964 0.62305 1.1309 3.385-0.0061 6.7709 0.01324 10.154-0.0078 0.71085-0.18495 1.3395-0.5891 1.9785-0.93945 0.7608-0.451 1.5121-0.92376 2.1816-1.5059 0.7881-0.9481 1.5117-1.9933 1.8574-3.1895 0.2419-0.778 0.51628-1.5459 0.73633-2.3301 0.07255-0.3207 0.40081-0.6038 0.74024-0.51562 0.55715 0.10066 1.1893 0.16835 1.6895-0.15625 0.31289-0.18725 0.39705-0.56405 0.54297-0.87305 0.15216-0.31995 0.23963-0.66524 0.38476-0.98828 0.007-0.015615 0.02034-0.045697 0.02734-0.060547zm-64.586 0.041c0.20912 0.56725 0.36795 1.1616 0.67383 1.6875 0.3379 0.40812 0.93224 0.47064 1.4277 0.41602 0.309-0.02108 0.65893-0.19036 0.93359 0.03125 0.24189 0.1381 0.28096 0.43545 0.36133 0.67578 0.2294 0.72255 0.47138 1.4396 0.71094 2.1582 0.3332 1.1603 1.0513 2.159 1.791 3.0937 0.3933 0.32225 0.79817 0.63003 1.2227 0.91016 0.88565 0.5423 1.7645 1.1091 2.7344 1.4922 0.23875 0.08974 0.49913 0.05239 0.74805 0.05859 3.203-0.0015 6.4062-0.001 9.6094 0 0.18963-0.39245 0.42293-0.75866 0.64844-1.1309-3.2215-0.3863-6.443-0.7766-9.668-1.127 0.58055-0.0398 1.162-0.02834 1.7441-0.02734 2.9775-0.0039 5.956 0.0082 8.9336-0.0059 0.30275-0.67732 1.0379-0.94321 1.6973-1.1406 0.4026-0.097535 0.81379-0.17928 1.2305-0.17383 1.6542 0.0055 3.3099-0.00205 4.9648 0.00195-0.01873-0.11392-0.03792-0.2267-0.05664-0.33984-0.03589-0.19741-0.08482-0.39086-0.12695-0.58594-1.6995-0.003-3.4001-0.004-5.0996 0-1.0909 0.142-2.1316 0.55415-3.0859 1.0918-0.07881 0.047575-0.16457 0.071312-0.25586 0.070312-3.1495-0.001-6.2999 0.0015-9.4492 0-0.759-0.0372-1.528-0.0657-2.262-0.2857-1.0896-0.2825-2.1012-0.8839-2.8441-1.7305-0.639-0.5922-1.1927-1.2751-1.6679-2.0039-0.4799-0.7725-0.9795-1.5318-1.4219-2.3262-0.1436-0.2536-0.4683-0.1866-0.7031-0.1367-0.7039 0.1522-1.4938 0.239-2.1485-0.1269-0.2552-0.1288-0.437-0.3542-0.6406-0.5469zm36.252 11.412c-0.40495 1.8157-0.90643 3.6108-1.377 5.4102-0.50255 1.9585-1.1155 3.8856-1.6406 5.8379 0.30589-0.23955 0.4935-0.58208 0.60742-0.94726 0.4549-1.0503 0.8591-2.1197 1.2773-3.1855 0.86225-2.32 1.7232-4.6616 2.1445-7.1094-0.33785-0.0052-0.67463-0.0084-1.0117-0.0059zm5.9121 0.002c-0.20151-0.0024-0.40298 0.0047-0.60352 0.0332-0.29495 0.15447-0.59328 0.30924-0.85156 0.52148-1.0659 0.76235-2.0522 1.6458-2.8887 2.6562-0.5376 0.68355-1.0731 1.464-1.0918 2.3652 0.5236-0.817 1.0806-1.6246 1.8008-2.2832 1.1556-1.1283 2.7031-1.8026 4.291-2.0312 1.5746-0.2614 3.1894-0.19693 4.7578 0.07617-1.4591-0.84271-3.1349-1.2356-4.8086-1.3145-0.20132-0.0078-0.40396-0.021-0.60547-0.02344zm-20.102 0.0078c-0.46604 0.02019-0.93143 0.06139-1.3945 0.11133-1.5138 0.17635-2.9734 0.71505-4.2578 1.5312 0.4331-0.10144 0.85054-0.26103 1.2891-0.33984 0.9005-0.16308 1.8179-0.23199 2.7324-0.21094 1.1728 0.0562 2.3631 0.1638 3.4688 0.58594 1.9406 0.63825 3.4469 2.1842 4.4277 3.9336 0.0328-0.7889-0.39977-1.4988-0.85156-2.1113-1.0229-1.3491-2.333-2.4644-3.7578-3.3672-0.08427-0.04526-0.17004-0.08834-0.25977-0.12109-0.46467-0.0316-0.93044-0.03191-1.3965-0.01172zm-13.337 3.021c-0.17868-0.02419-0.3244 0.088-0.46875 0.17383-1.3608 0.8482-2.7337 1.6804-4.0586 2.584-0.77015 0.5595-1.5255 1.1394-2.2598 1.7441-0.1904 0.15372-0.35106 0.34856-0.57812 0.45312v0.01758c-0.00469 0.06398-0.00742 0.12938-0.00977 0.19336 0.5548 0.025 0.92318-0.42885 1.3516-0.70117 1.3226-0.8997 2.7103-1.6989 4.1328-2.4277 0.81545-0.4557 1.667-0.8407 2.5176-1.2246 0.6586-0.30664 1.3563-0.51909 2.0273-0.79688-0.88405-0.03275-1.7695-0.0039-2.6543-0.01562zm16.816 2.0195c-0.26685 0.0016-0.53352 0.0051-0.79883 0.0293 0.9777 1.9911 1.9262 3.9965 2.9062 5.9863 0.29105 0.46195 0.71778 0.83779 1.207 1.0781 0.25985 0.0139 0.52063 0.0064 0.78125 0.0039-0.47835-0.2926-0.94798-0.65141-1.2109-1.1602-0.792-1.6082-1.5603-3.2273-2.3477-4.8379-0.23097-0.341-0.36388-0.72975-0.53711-1.0996zm-2.0742 2.8398c-0.07725 0.3621-0.20779 0.71843-0.19141 1.0938-0.03745 1.2555 0.62362 2.5344 1.7246 3.1602 0.5751 0.35346 1.2621 0.46203 1.9277 0.39648-0.06867-0.13889-0.13524-0.2779-0.20312-0.41602-0.3254 0.01796-0.66835 0.08656-0.98047-0.04297-0.42685-0.14515-0.82765-0.39578-1.0781-0.77734-0.50407-0.6773-0.59227-1.6002-0.33789-2.3906 0.08661-0.29105 0.27984-0.52924 0.40625-0.80078-0.4237-0.06632-0.84154-0.16804-1.2676-0.22266zm17.365 0.0078c-0.42915 0.06866-0.85521 0.15515-1.2852 0.2168 0.24033 0.387 0.47078 0.79822 0.5332 1.2578 0.1506 0.84035-0.14338 1.7616-0.79883 2.3203-0.44635 0.42607-1.1015 0.54753-1.6953 0.44531-0.07179 0.13812-0.14188 0.27712-0.21289 0.41602 0.64535 0.03746 1.307-0.04804 1.8789-0.36719 0.62035-0.3738 1.1414-0.92268 1.4473-1.582 0.36674-0.84664 0.43245-1.8307 0.13281-2.707zm-20.166 5.1562c-1.6979 1.3569-3.1951 2.9894-4.2539 4.8965 0.86695 1.2906 1.7292 2.5813 2.5781 3.8828-0.04681-0.5119-0.17384-1.0143-0.18555-1.5293-0.04995-1.2828 0.2198-2.5807 0.7793-3.7363 0.22785-0.56965 0.59527-1.0655 0.88086-1.6055 0.18415-0.3722 0.49757-0.65001 0.74805-0.97461-0.06867-0.10768-0.13484-0.21263-0.20117-0.32031-0.12329-0.19976-0.2388-0.40494-0.3457-0.61328zm8.2637 1.3574c-0.2029 1.8174-0.51255 3.6447-1.1875 5.3535 0.0015-0.9606-0.16769-1.9342-0.58203-2.8066-0.29885 0.71165-0.51574 1.4617-0.92774 2.1211-0.28245 0.50875-0.77779 0.84039-1.1406 1.2852-0.53375 0.63985-1.1188 1.2619-1.4551 2.0352-0.08817 0.2926-0.21741 0.62732-0.07617 0.92383 0.3925 0.9715 0.74931 1.9578 1.1465 2.9277 0.03667 0.09754 0.12391 0.16026 0.19336 0.23438-0.16932-0.66325-0.3598-1.3282-0.38867-2.0156-0.04996-0.9247 0.01854-1.9002 0.48438-2.7227 0.302-0.55635 0.75679-1.0095 1.1992-1.4551 0.07881-0.07257 0.15675-0.14812 0.24805-0.20508 0.46115 0.15137 0.90214 0.36344 1.3711 0.49609 1.6099 0.56027 3.3247 0.75619 5.0234 0.71484 1.3975 0.03979 2.8044-0.0672 4.166-0.39648 0.60005-0.13575 1.1218-0.48301 1.7148-0.64062-1.0955 0.18493-2.2009 0.29974-3.3066 0.39648-1.1571 0.1077-2.319 0.05029-3.4746-0.0293-0.9075-0.13735-1.8463-0.27988-2.6445-0.76367-0.0047-0.8708-0.01414-1.7409-0.07813-2.6094-0.01951-0.9543-0.17826-1.898-0.28516-2.8438z" fill="#f7e400" transform="translate(0 -.00025940)"/>
  <path d="m41.15 35.588c-0.3199 0.24115-0.59064 0.54363-0.92383 0.76758-0.72645 0.50485-1.4525 1.015-2.2344 1.4316-0.8092 0.4448-1.6737 0.76325-2.5469 1.0566-0.02108 0.53995-0.0067 1.0811-0.0059 1.6211 0.12172-0.0024 0.24468-0.0044 0.36719-0.0059-0.0148-0.76545 0.84695-1.3735 1.5586-1.084 0.38313 0.10845 0.65486 0.42896 0.79297 0.79102 0.62425 0.02185 1.2113-0.2237 1.7832-0.44141 0.20366-0.09597 0.43808-0.16269 0.59961-0.32422 0.174-0.36205 0.28649-0.7489 0.41602-1.1289 0.13422-0.3995-0.27912-0.76806-0.13476-1.166 0.15606-0.49395 0.30238-0.99713 0.32812-1.5176zm-13.744 0.01758c0.0281 0.50175 0.14944 0.99783 0.32812 1.4668 0.14669 0.33475-0.06342 0.68554-0.17578 1 0.12328 0.4627 0.31738 0.90016 0.48047 1.3496 0.73585 0.39796 1.5526 0.72619 2.3984 0.74414 0.11935-0.3839 0.41728-0.70833 0.81445-0.80664 0.7093-0.24895 1.5582 0.33767 1.541 1.1016 0.12172-0.0047 0.24272-0.0077 0.36523-0.01172-0.04292-0.5322 0.0413-1.0772-0.04297-1.6016-0.3886-0.17947-0.80517-0.28535-1.2031-0.44141-1.6558-0.65545-3.138-1.6756-4.5059-2.8008zm1.0254 5.6895c0.4885 0.7655 1.355 1.3156 2.2773 1.3242 1.8719-0.001 3.7421 0.0025 5.6133 0 1.1088-0.06475 2.2175-0.46804 3.0742-1.1797-0.26995 0.0023-0.54017 0.01803-0.80859 0.04687-1.7102 0.17168-3.4298 0.14212-5.1465 0.14062-1.676 0.01561-3.3446-0.16817-5.0098-0.33203z" transform="translate(0 -.00025940)"/>
 </g>
</svg>